<svg xmlns="http://www.w3.org/2000/svg" width="720" height="260" viewBox="0 0 720 260" role="img" aria-label="2D shared surface slice"><rect width="720" height="260" fill="#07110d"/><text x="36" y="30" fill="#e5f4ea" font-family="Arial, sans-serif" font-size="18">2D shared surface slice</text><line x1="38" y1="210" x2="682" y2="210" stroke="#245242" stroke-width="1"/><line x1="38" y1="48" x2="38" y2="210" stroke="#245242" stroke-width="1"/><polyline points="54.9,90.9 71.9,195.9 88.8,136.8 105.8,38 122.7,150.2 139.7,58.6 156.6,118 173.6,187.4 190.5,138.4 207.5,126.8 224.4,151 241.4,124.9 258.3,149.7 275.3,177.7 292.2,126.3 309.2,150 326.1,171.9 343.1,131.2 360,139.4 376.9,134.5 393.9,192.7 410.8,222 427.8,93.3 444.7,152 461.7,128.7 478.6,129.7 495.6,169.5 512.5,104.9 529.5,131.2 546.4,147.7 563.4,135.5 580.3,133.2 597.3,132.2 614.2,179.1 631.2,150.5 648.1,168.5 665.1,123.9 682,142.3" fill="none" stroke="#f1cf5f" stroke-width="2.4" stroke-linecap="round" stroke-linejoin="round"/><polyline points="54.9,84.3 71.9,142.9 88.8,133.8 105.8,45 122.7,85.9 139.7,38 156.6,62.1 173.6,141.3 190.5,150.2 207.5,144.9 224.4,161.2 241.4,146.9 258.3,159.3 275.3,188.2 292.2,161.6 309.2,163.7 326.1,181.9 343.1,155.9 360,146.3 376.9,133.8 393.9,174.4 410.8,222 427.8,140.1 444.7,137 461.7,113.8 478.6,100.5 495.6,127.2 512.5,89.7 529.5,89.9 546.4,105.3 563.4,105.7 580.3,105.6 597.3,106 614.2,147.5 631.2,148.9 648.1,164.1 665.1,133.4 682,130.5" fill="none" stroke="#6ab7ff" stroke-width="2.4" stroke-linecap="round" stroke-linejoin="round"/><polyline points="495.6,167.1 512.5,119.7 529.5,100.1 546.4,90.4 563.4,74.8 580.3,56.9 597.3,38 614.2,86.8 631.2,98.1 648.1,222 665.1,156.4 682,145.6" fill="none" stroke="#ef8840" stroke-width="2.4" stroke-linecap="round" stroke-linejoin="round"/><g fill="#a9c8b7" font-family="Arial, sans-serif" font-size="12"><g transform="translate(40 236)"><rect width="10" height="10" fill="#f1cf5f" rx="2"/><text x="16" y="10">PRE</text></g><g transform="translate(200 236)"><rect width="10" height="10" fill="#6ab7ff" rx="2"/><text x="16" y="10">MACD slope</text></g><g transform="translate(360 236)"><rect width="10" height="10" fill="#ef8840" rx="2"/><text x="16" y="10">StochRSI</text></g></g></svg>