<svg xmlns="http://www.w3.org/2000/svg" width="720" height="260" viewBox="0 0 720 260" role="img" aria-label="4D signal view"><rect width="720" height="260" fill="#07110d"/><text x="36" y="30" fill="#e5f4ea" font-family="Arial, sans-serif" font-size="18">4D signal view</text><line x1="38" y1="210" x2="682" y2="210" stroke="#245242" stroke-width="1"/><line x1="38" y1="48" x2="38" y2="210" stroke="#245242" stroke-width="1"/><polyline points="38,183.1 54.9,135.7 71.9,152.9 88.8,155.9 105.8,104.6 122.7,99.4 139.7,84.6 156.6,80.2 173.6,87.3 190.5,87 207.5,85.1 224.4,85.5 241.4,81.6 258.3,82.5 275.3,38.7 292.2,38 309.2,50.3 326.1,97.2 343.1,113.6 360,124.6 376.9,122.9 393.9,172.7 410.8,222 427.8,203.6 444.7,207 461.7,199.5 478.6,190.6 495.6,201.6 512.5,179.3 529.5,158.7 546.4,143.1 563.4,119.8 580.3,93.2 597.3,70.1 614.2,102.4 631.2,120.1 648.1,160.4 665.1,152 682,148.3" fill="none" stroke="#6fd3a1" stroke-width="2.4" stroke-linecap="round" stroke-linejoin="round"/><polyline points="38,222 145.3,77.3 252.7,64.5 360,78 467.3,45.3 574.7,40.1 682,38" fill="none" stroke="#6ab7ff" stroke-width="2.4" stroke-linecap="round" stroke-linejoin="round"/><polyline points="38,222 682,38" fill="none" stroke="#b48dff" stroke-width="2.4" stroke-linecap="round" stroke-linejoin="round"/><g fill="#a9c8b7" font-family="Arial, sans-serif" font-size="12"><g transform="translate(40 236)"><rect width="10" height="10" fill="#6fd3a1" rx="2"/><text x="16" y="10">10m pressure</text></g><g transform="translate(200 236)"><rect width="10" height="10" fill="#6ab7ff" rx="2"/><text x="16" y="10">1h pressure</text></g><g transform="translate(360 236)"><rect width="10" height="10" fill="#b48dff" rx="2"/><text x="16" y="10">4h pressure</text></g></g></svg>