<svg xmlns="http://www.w3.org/2000/svg" width="720" height="260" viewBox="0 0 720 260" role="img" aria-label="30m MACD"><rect width="720" height="260" fill="#07110d"/><text x="36" y="30" fill="#e5f4ea" font-family="Arial, sans-serif" font-size="18">30m MACD</text><line x1="38" y1="210" x2="682" y2="210" stroke="#245242" stroke-width="1"/><line x1="38" y1="48" x2="38" y2="210" stroke="#245242" stroke-width="1"/><polyline points="38,222 91.7,167.9 145.3,100 199,53.7 252.7,38 306.3,42.3 360,38.1 413.7,79.6 467.3,100.2 521,104.9 574.7,103.7 628.3,122.4 682,140.2" fill="none" stroke="#b48dff" stroke-width="2.4" stroke-linecap="round" stroke-linejoin="round"/><polyline points="91.7,61.1 145.3,38 199,74.2 252.7,125.9 306.3,159.6 360,145.2 413.7,222 467.3,187.1 521,160.2 574.7,150.1 628.3,183.8 682,182.2" fill="none" stroke="#6ab7ff" stroke-width="2.4" stroke-linecap="round" stroke-linejoin="round"/><g fill="#a9c8b7" font-family="Arial, sans-serif" font-size="12"><g transform="translate(40 236)"><rect width="10" height="10" fill="#b48dff" rx="2"/><text x="16" y="10">Histogram</text></g><g transform="translate(200 236)"><rect width="10" height="10" fill="#6ab7ff" rx="2"/><text x="16" y="10">Slope</text></g></g></svg>