<svg xmlns="http://www.w3.org/2000/svg" width="720" height="260" viewBox="0 0 720 260" role="img" aria-label="10m MACD"><rect width="720" height="260" fill="#07110d"/><text x="36" y="30" fill="#e5f4ea" font-family="Arial, sans-serif" font-size="18">10m MACD</text><line x1="38" y1="210" x2="682" y2="210" stroke="#245242" stroke-width="1"/><line x1="38" y1="48" x2="38" y2="210" stroke="#245242" stroke-width="1"/><polyline points="38,154.3 54.9,137.6 71.9,142.4 88.8,143.9 105.8,112.7 122.7,96.6 139.7,62.9 156.6,38 173.6,42.2 190.5,49.7 207.5,55.2 224.4,66.7 241.4,73 258.3,83.8 275.3,105.2 292.2,116.9 309.2,129.3 326.1,148.4 343.1,157.9 360,164 376.9,165.4 393.9,181.8 410.8,215.6 427.8,219.4 444.7,222 461.7,216.1 478.6,205.3 495.6,204.3 512.5,189.6 529.5,174.9 546.4,165.9 563.4,157.1 580.3,148.2 597.3,139.4 614.2,145.9 631.2,152.9 648.1,165.5 665.1,166.8 682,167" fill="none" stroke="#b48dff" stroke-width="2.4" stroke-linecap="round" stroke-linejoin="round"/><polyline points="54.9,84.3 71.9,142.9 88.8,133.8 105.8,45 122.7,85.9 139.7,38 156.6,62.1 173.6,141.3 190.5,150.2 207.5,144.9 224.4,161.2 241.4,146.9 258.3,159.3 275.3,188.2 292.2,161.6 309.2,163.7 326.1,181.9 343.1,155.9 360,146.3 376.9,133.8 393.9,174.4 410.8,222 427.8,140.1 444.7,137 461.7,113.8 478.6,100.5 495.6,127.2 512.5,89.7 529.5,89.9 546.4,105.3 563.4,105.7 580.3,105.6 597.3,106 614.2,147.5 631.2,148.9 648.1,164.1 665.1,133.4 682,130.5" fill="none" stroke="#6ab7ff" stroke-width="2.4" stroke-linecap="round" stroke-linejoin="round"/><g fill="#a9c8b7" font-family="Arial, sans-serif" font-size="12"><g transform="translate(40 236)"><rect width="10" height="10" fill="#b48dff" rx="2"/><text x="16" y="10">Histogram</text></g><g transform="translate(200 236)"><rect width="10" height="10" fill="#6ab7ff" rx="2"/><text x="16" y="10">Slope</text></g></g></svg>