<svg xmlns="http://www.w3.org/2000/svg" width="720" height="260" viewBox="0 0 720 260" role="img" aria-label="30m PRE and Lift"><rect width="720" height="260" fill="#07110d"/><text x="36" y="30" fill="#e5f4ea" font-family="Arial, sans-serif" font-size="18">30m PRE and Lift</text><line x1="38" y1="210" x2="682" y2="210" stroke="#245242" stroke-width="1"/><line x1="38" y1="48" x2="38" y2="210" stroke="#245242" stroke-width="1"/><polyline points="91.7,38 145.3,78.8 199,131.1 252.7,164.1 306.3,162.3 360,118.1 413.7,222 467.3,122.6 521,118.9 574.7,128.1 628.3,176.4 682,148.5" fill="none" stroke="#f1cf5f" stroke-width="2.4" stroke-linecap="round" stroke-linejoin="round"/><polyline points="91.7,68 145.3,38 199,164 252.7,133.7 306.3,199.6 360,219.9 413.7,158.5 467.3,222 521,221.6 574.7,201.2 628.3,198.5 682,131.7" fill="none" stroke="#6ab7ff" stroke-width="2.4" stroke-linecap="round" stroke-linejoin="round"/><polyline points="91.7,222 145.3,222 199,222 252.7,222 306.3,222 360,222 413.7,222 467.3,222 521,222 574.7,222 628.3,222 682,222" fill="none" stroke="#ef8840" stroke-width="2.4" stroke-linecap="round" stroke-linejoin="round"/><g fill="#a9c8b7" font-family="Arial, sans-serif" font-size="12"><g transform="translate(40 236)"><rect width="10" height="10" fill="#f1cf5f" rx="2"/><text x="16" y="10">PRE</text></g><g transform="translate(200 236)"><rect width="10" height="10" fill="#6ab7ff" rx="2"/><text x="16" y="10">Lift</text></g><g transform="translate(360 236)"><rect width="10" height="10" fill="#ef8840" rx="2"/><text x="16" y="10">Angle</text></g></g></svg>