<svg xmlns="http://www.w3.org/2000/svg" width="720" height="260" viewBox="0 0 720 260" role="img" aria-label="10m PRE and Lift"><rect width="720" height="260" fill="#07110d"/><text x="36" y="30" fill="#e5f4ea" font-family="Arial, sans-serif" font-size="18">10m PRE and Lift</text><line x1="38" y1="210" x2="682" y2="210" stroke="#245242" stroke-width="1"/><line x1="38" y1="48" x2="38" y2="210" stroke="#245242" stroke-width="1"/><polyline points="54.9,90.9 71.9,195.9 88.8,136.8 105.8,38 122.7,150.2 139.7,58.6 156.6,118 173.6,187.4 190.5,138.4 207.5,126.8 224.4,151 241.4,124.9 258.3,149.7 275.3,177.7 292.2,126.3 309.2,150 326.1,171.9 343.1,131.2 360,139.4 376.9,134.5 393.9,192.7 410.8,222 427.8,93.3 444.7,152 461.7,128.7 478.6,129.7 495.6,169.5 512.5,104.9 529.5,131.2 546.4,147.7 563.4,135.5 580.3,133.2 597.3,132.2 614.2,179.1 631.2,150.5 648.1,168.5 665.1,123.9 682,142.3" fill="none" stroke="#f1cf5f" stroke-width="2.4" stroke-linecap="round" stroke-linejoin="round"/><polyline points="54.9,38 71.9,116.6 88.8,161.3 105.8,142.6 122.7,106.8 139.7,108.8 156.6,108.3 173.6,147 190.5,171.8 207.5,201.1 224.4,186.8 241.4,163.9 258.3,164.5 275.3,184.2 292.2,200.5 309.2,202.9 326.1,211.6 343.1,213.4 360,220.1 376.9,213 393.9,198 410.8,157.9 427.8,195.1 444.7,218.3 461.7,221.4 478.6,210 495.6,213.2 512.5,215.4 529.5,220.5 546.4,207.4 563.4,222 580.3,188 597.3,199.9 614.2,207.2 631.2,206.2 648.1,208.6 665.1,195.1 682,105.9" fill="none" stroke="#6ab7ff" stroke-width="2.4" stroke-linecap="round" stroke-linejoin="round"/><polyline points="54.9,222 71.9,222 88.8,222 105.8,222 122.7,222 139.7,222 156.6,222 173.6,222 190.5,222 207.5,222 224.4,222 241.4,222 258.3,222 275.3,222 292.2,222 309.2,222 326.1,222 343.1,222 360,222 376.9,222 393.9,222 410.8,222 427.8,222 444.7,222 461.7,222 478.6,222 495.6,222 512.5,222 529.5,222 546.4,222 563.4,222 580.3,222 597.3,222 614.2,222 631.2,222 648.1,222 665.1,222 682,222" fill="none" stroke="#ef8840" stroke-width="2.4" stroke-linecap="round" stroke-linejoin="round"/><g fill="#a9c8b7" font-family="Arial, sans-serif" font-size="12"><g transform="translate(40 236)"><rect width="10" height="10" fill="#f1cf5f" rx="2"/><text x="16" y="10">PRE</text></g><g transform="translate(200 236)"><rect width="10" height="10" fill="#6ab7ff" rx="2"/><text x="16" y="10">Lift</text></g><g transform="translate(360 236)"><rect width="10" height="10" fill="#ef8840" rx="2"/><text x="16" y="10">Angle</text></g></g></svg>