<svg xmlns="http://www.w3.org/2000/svg" width="720" height="260" viewBox="0 0 720 260" role="img" aria-label="10m price and volume"><rect width="720" height="260" fill="#07110d"/><text x="36" y="30" fill="#e5f4ea" font-family="Arial, sans-serif" font-size="18">10m price and volume</text><line x1="38" y1="210" x2="682" y2="210" stroke="#245242" stroke-width="1"/><line x1="38" y1="48" x2="38" y2="210" stroke="#245242" stroke-width="1"/><polyline points="38,222 54.9,186.2 71.9,216.9 88.8,212.2 105.8,142.1 122.7,144.3 139.7,86.5 156.6,67.2 173.6,94.8 190.5,90.3 207.5,77.7 224.4,80.5 241.4,65 258.3,66.6 275.3,85.6 292.2,71.6 309.2,73.5 326.1,90 343.1,79.2 360,74.8 376.9,65.9 393.9,95.4 410.8,144.3 427.8,109.4 444.7,113.2 461.7,100.8 478.6,89.1 495.6,104 512.5,76.4 529.5,65.9 546.4,65.9 563.4,57.7 580.3,48.2 597.3,38 614.2,59.3 631.2,61.8 648.1,76.4 665.1,60.8 682,58.3" fill="none" stroke="#6fd3a1" stroke-width="2.4" stroke-linecap="round" stroke-linejoin="round"/><polyline points="38,38 54.9,157.2 71.9,184.9 88.8,200.6 105.8,194 122.7,181.4 139.7,182.2 156.6,182 173.6,195.6 190.5,204.3 207.5,214.6 224.4,209.6 241.4,201.6 258.3,201.8 275.3,208.7 292.2,214.4 309.2,215.3 326.1,218.3 343.1,219 360,221.3 376.9,218.8 393.9,213.6 410.8,199.4 427.8,212.5 444.7,220.7 461.7,221.8 478.6,217.8 495.6,218.9 512.5,219.7 529.5,221.5 546.4,216.8 563.4,222 580.3,210 597.3,214.2 614.2,216.8 631.2,216.4 648.1,217.3 665.1,212.5 682,181.1" fill="none" stroke="#d9b64f" stroke-width="2.4" stroke-linecap="round" stroke-linejoin="round"/><g fill="#a9c8b7" font-family="Arial, sans-serif" font-size="12"><g transform="translate(40 236)"><rect width="10" height="10" fill="#6fd3a1" rx="2"/><text x="16" y="10">Close</text></g><g transform="translate(200 236)"><rect width="10" height="10" fill="#d9b64f" rx="2"/><text x="16" y="10">Volume</text></g></g></svg>