<svg xmlns="http://www.w3.org/2000/svg" width="720" height="260" viewBox="0 0 720 260" role="img" aria-label="30m price and volume"><rect width="720" height="260" fill="#07110d"/><text x="36" y="30" fill="#e5f4ea" font-family="Arial, sans-serif" font-size="18">30m price and volume</text><line x1="38" y1="210" x2="682" y2="210" stroke="#245242" stroke-width="1"/><line x1="38" y1="48" x2="38" y2="210" stroke="#245242" stroke-width="1"/><polyline points="38,222 91.7,142.8 145.3,88.8 199,73.3 252.7,78.8 306.3,83.7 360,57.4 413.7,104.8 467.3,82.6 521,57.4 574.7,38 628.3,52.9 682,49.1" fill="none" stroke="#6fd3a1" stroke-width="2.4" stroke-linecap="round" stroke-linejoin="round"/><polyline points="38,38 91.7,166.7 145.3,155.9 199,201.2 252.7,190.3 306.3,214 360,221.2 413.7,199.2 467.3,222 521,221.9 574.7,214.5 628.3,213.6 682,189.6" fill="none" stroke="#d9b64f" stroke-width="2.4" stroke-linecap="round" stroke-linejoin="round"/><g fill="#a9c8b7" font-family="Arial, sans-serif" font-size="12"><g transform="translate(40 236)"><rect width="10" height="10" fill="#6fd3a1" rx="2"/><text x="16" y="10">Close</text></g><g transform="translate(200 236)"><rect width="10" height="10" fill="#d9b64f" rx="2"/><text x="16" y="10">Volume</text></g></g></svg>