<svg xmlns="http://www.w3.org/2000/svg" width="720" height="260" viewBox="0 0 720 260" role="img" aria-label="10m RSI"><rect width="720" height="260" fill="#07110d"/><text x="36" y="30" fill="#e5f4ea" font-family="Arial, sans-serif" font-size="18">10m RSI</text><line x1="38" y1="210" x2="682" y2="210" stroke="#245242" stroke-width="1"/><line x1="38" y1="48" x2="38" y2="210" stroke="#245242" stroke-width="1"/><polyline points="275.3,49.2 292.2,38 309.2,42.3 326.1,80.6 343.1,69.6 360,65 376.9,55.6 393.9,127.7 410.8,222 427.8,174 444.7,180.7 461.7,164 478.6,148.4 495.6,178.5 512.5,140.9 529.5,127.7 546.4,127.7 563.4,116.5 580.3,103.6 597.3,90.1 614.2,145.2 631.2,151.6 648.1,187.7 665.1,160.1 682,155.6" fill="none" stroke="#a5d83f" stroke-width="2.4" stroke-linecap="round" stroke-linejoin="round"/><g fill="#a9c8b7" font-family="Arial, sans-serif" font-size="12"><g transform="translate(40 236)"><rect width="10" height="10" fill="#a5d83f" rx="2"/><text x="16" y="10">RSI</text></g></g></svg>