<svg xmlns="http://www.w3.org/2000/svg" width="720" height="260" viewBox="0 0 720 260" role="img" aria-label="10m StochRSI"><rect width="720" height="260" fill="#07110d"/><text x="36" y="30" fill="#e5f4ea" font-family="Arial, sans-serif" font-size="18">10m StochRSI</text><line x1="38" y1="210" x2="682" y2="210" stroke="#245242" stroke-width="1"/><line x1="38" y1="48" x2="38" y2="210" stroke="#245242" stroke-width="1"/><polyline points="495.6,167.1 512.5,119.7 529.5,100.1 546.4,90.4 563.4,74.8 580.3,56.9 597.3,38 614.2,86.8 631.2,98.1 648.1,222 665.1,156.4 682,145.6" fill="none" stroke="#ef8840" stroke-width="2.4" stroke-linecap="round" stroke-linejoin="round"/><polyline points="529.5,150.8 546.4,111 563.4,87.7 580.3,65.2 597.3,38 614.2,44.2 631.2,65.6 648.1,161.2 665.1,197.3 682,222" fill="none" stroke="#6fd3a1" stroke-width="2.4" stroke-linecap="round" stroke-linejoin="round"/><polyline points="563.4,123.8 580.3,87.5 597.3,56.4 614.2,38 631.2,38.2 648.1,90.5 665.1,155.5 682,222" fill="none" stroke="#ef4e5f" stroke-width="2.4" stroke-linecap="round" stroke-linejoin="round"/><g fill="#a9c8b7" font-family="Arial, sans-serif" font-size="12"><g transform="translate(40 236)"><rect width="10" height="10" fill="#ef8840" rx="2"/><text x="16" y="10">Value</text></g><g transform="translate(200 236)"><rect width="10" height="10" fill="#6fd3a1" rx="2"/><text x="16" y="10">%K</text></g><g transform="translate(360 236)"><rect width="10" height="10" fill="#ef4e5f" rx="2"/><text x="16" y="10">%D</text></g></g></svg>