<svg xmlns="http://www.w3.org/2000/svg" width="720" height="260" viewBox="0 0 720 260" role="img" aria-label="2D shared surface slice"><rect width="720" height="260" fill="#07110d"/><text x="36" y="30" fill="#e5f4ea" font-family="Arial, sans-serif" font-size="18">2D shared surface slice</text><line x1="38" y1="210" x2="682" y2="210" stroke="#245242" stroke-width="1"/><line x1="38" y1="48" x2="38" y2="210" stroke="#245242" stroke-width="1"/><polyline points="54.5,222 71,38 87.5,128.4 104.1,70.5 120.6,83.6 137.1,101.6 153.6,67.9 170.1,50.9 186.6,55.6 203.1,118.8 219.6,128 236.2,95.4 252.7,73.1 269.2,115.9 285.7,76.2 302.2,100.7 318.7,89.8 335.2,103.8 351.7,109.8 368.3,101.1 384.8,95.1 401.3,88.3 417.8,107.9 434.3,131 450.8,101.1 467.3,119 483.8,54.7 500.4,73.8 516.9,109.8 533.4,95.1 549.9,107.2 566.4,113.6 582.9,81 599.4,93.2 615.9,108.3 632.5,115.5 649,106.8 665.5,108 682,95" fill="none" stroke="#f1cf5f" stroke-width="2.4" stroke-linecap="round" stroke-linejoin="round"/><polyline points="54.5,222 71,127.7 87.5,142.3 104.1,102.6 120.6,87 137.1,94.1 153.6,72.1 170.1,46.8 186.6,38 203.1,90.6 219.6,132.8 236.2,130.8 252.7,109.1 269.2,134.2 285.7,115.1 302.2,124.3 318.7,121.1 335.2,131.9 351.7,142.2 368.3,139.9 384.8,131.7 401.3,121.3 417.8,130.4 434.3,156.1 450.8,144.4 467.3,150.1 483.8,97.8 500.4,82.6 516.9,105.1 533.4,107.1 549.9,118.1 566.4,131.1 582.9,111.5 599.4,110.1 615.9,121.4 632.5,134.4 649,134.2 665.5,134.7 682,122.1" fill="none" stroke="#6ab7ff" stroke-width="2.4" stroke-linecap="round" stroke-linejoin="round"/><polyline points="483.8,98.9 500.4,38 516.9,73.3 533.4,64.1 549.9,84.5 566.4,133.5 582.9,78.7 599.4,64.2 615.9,99.8 632.5,159.9 649,187.8 665.5,222 682,203.6" fill="none" stroke="#ef8840" stroke-width="2.4" stroke-linecap="round" stroke-linejoin="round"/><g fill="#a9c8b7" font-family="Arial, sans-serif" font-size="12"><g transform="translate(40 236)"><rect width="10" height="10" fill="#f1cf5f" rx="2"/><text x="16" y="10">PRE</text></g><g transform="translate(200 236)"><rect width="10" height="10" fill="#6ab7ff" rx="2"/><text x="16" y="10">MACD slope</text></g><g transform="translate(360 236)"><rect width="10" height="10" fill="#ef8840" rx="2"/><text x="16" y="10">StochRSI</text></g></g></svg>