<svg xmlns="http://www.w3.org/2000/svg" width="720" height="260" viewBox="0 0 720 260" role="img" aria-label="4D signal view"><rect width="720" height="260" fill="#07110d"/><text x="36" y="30" fill="#e5f4ea" font-family="Arial, sans-serif" font-size="18">4D signal view</text><line x1="38" y1="210" x2="682" y2="210" stroke="#245242" stroke-width="1"/><line x1="38" y1="48" x2="38" y2="210" stroke="#245242" stroke-width="1"/><polyline points="38,135.2 54.5,221.5 71,212.1 87.5,222 104.1,216 120.6,208.8 137.1,202.4 153.6,165.4 170.1,82.4 186.6,46.5 203.1,50.6 219.6,58.9 236.2,59.5 252.7,53 269.2,50.6 285.7,39.8 302.2,41 318.7,38 335.2,44.7 351.7,58.8 368.3,73.8 384.8,82.9 401.3,80.8 417.8,100.1 434.3,164.8 450.8,188.6 467.3,214.9 483.8,178.8 500.4,140.3 516.9,135.9 533.4,122.4 549.9,128.4 566.4,153.7 582.9,135.5 599.4,124 615.9,135.7 632.5,166.1 649,185.7 665.5,198.8 682,196" fill="none" stroke="#6fd3a1" stroke-width="2.4" stroke-linecap="round" stroke-linejoin="round"/><polyline points="38,222 130,89.6 222,38 314,41.8 406,40.9 498,44.9 590,67.7 682,83" fill="none" stroke="#6ab7ff" stroke-width="2.4" stroke-linecap="round" stroke-linejoin="round"/><polyline points="38,38 360,184 682,222" fill="none" stroke="#b48dff" stroke-width="2.4" stroke-linecap="round" stroke-linejoin="round"/><g fill="#a9c8b7" font-family="Arial, sans-serif" font-size="12"><g transform="translate(40 236)"><rect width="10" height="10" fill="#6fd3a1" rx="2"/><text x="16" y="10">10m pressure</text></g><g transform="translate(200 236)"><rect width="10" height="10" fill="#6ab7ff" rx="2"/><text x="16" y="10">1h pressure</text></g><g transform="translate(360 236)"><rect width="10" height="10" fill="#b48dff" rx="2"/><text x="16" y="10">4h pressure</text></g></g></svg>