<svg xmlns="http://www.w3.org/2000/svg" width="720" height="260" viewBox="0 0 720 260" role="img" aria-label="10m MACD"><rect width="720" height="260" fill="#07110d"/><text x="36" y="30" fill="#e5f4ea" font-family="Arial, sans-serif" font-size="18">10m MACD</text><line x1="38" y1="210" x2="682" y2="210" stroke="#245242" stroke-width="1"/><line x1="38" y1="48" x2="38" y2="210" stroke="#245242" stroke-width="1"/><polyline points="38,133.8 54.5,199.8 71,206.3 87.5,222 104.1,212.6 120.6,193.4 137.1,178.5 153.6,149.8 170.1,105.2 186.6,55 203.1,38 219.6,47.6 236.2,56.1 252.7,50.7 269.2,61.3 285.7,59.8 302.2,64.2 318.7,66.5 335.2,75.5 351.7,91.2 368.3,105.4 384.8,114.3 401.3,116.8 417.8,124.9 434.3,149.3 450.8,166.3 467.3,186.9 483.8,174.5 500.4,152.5 516.9,144.6 533.4,138.1 549.9,138.4 566.4,147 582.9,143.2 599.4,138.6 615.9,141.1 632.5,151.8 649,162.4 665.5,173.3 682,176.2" fill="none" stroke="#b48dff" stroke-width="2.4" stroke-linecap="round" stroke-linejoin="round"/><polyline points="54.5,222 71,127.7 87.5,142.3 104.1,102.6 120.6,87 137.1,94.1 153.6,72.1 170.1,46.8 186.6,38 203.1,90.6 219.6,132.8 236.2,130.8 252.7,109.1 269.2,134.2 285.7,115.1 302.2,124.3 318.7,121.1 335.2,131.9 351.7,142.2 368.3,139.9 384.8,131.7 401.3,121.3 417.8,130.4 434.3,156.1 450.8,144.4 467.3,150.1 483.8,97.8 500.4,82.6 516.9,105.1 533.4,107.1 549.9,118.1 566.4,131.1 582.9,111.5 599.4,110.1 615.9,121.4 632.5,134.4 649,134.2 665.5,134.7 682,122.1" fill="none" stroke="#6ab7ff" stroke-width="2.4" stroke-linecap="round" stroke-linejoin="round"/><g fill="#a9c8b7" font-family="Arial, sans-serif" font-size="12"><g transform="translate(40 236)"><rect width="10" height="10" fill="#b48dff" rx="2"/><text x="16" y="10">Histogram</text></g><g transform="translate(200 236)"><rect width="10" height="10" fill="#6ab7ff" rx="2"/><text x="16" y="10">Slope</text></g></g></svg>