<svg xmlns="http://www.w3.org/2000/svg" width="720" height="260" viewBox="0 0 720 260" role="img" aria-label="30m MACD"><rect width="720" height="260" fill="#07110d"/><text x="36" y="30" fill="#e5f4ea" font-family="Arial, sans-serif" font-size="18">30m MACD</text><line x1="38" y1="210" x2="682" y2="210" stroke="#245242" stroke-width="1"/><line x1="38" y1="48" x2="38" y2="210" stroke="#245242" stroke-width="1"/><polyline points="38,214.6 87.5,203.3 137.1,131.5 186.6,97.6 236.2,71.8 285.7,38 335.2,44.9 384.8,54.7 434.3,120.3 483.8,119.1 533.4,142.3 582.9,152.6 632.5,195.2 682,222" fill="none" stroke="#b48dff" stroke-width="2.4" stroke-linecap="round" stroke-linejoin="round"/><polyline points="87.5,119 137.1,38 186.6,88.9 236.2,99.5 285.7,88.9 335.2,143.3 384.8,147.3 434.3,222 483.8,132.5 533.4,165.3 582.9,147.9 632.5,191.2 682,170.1" fill="none" stroke="#6ab7ff" stroke-width="2.4" stroke-linecap="round" stroke-linejoin="round"/><g fill="#a9c8b7" font-family="Arial, sans-serif" font-size="12"><g transform="translate(40 236)"><rect width="10" height="10" fill="#b48dff" rx="2"/><text x="16" y="10">Histogram</text></g><g transform="translate(200 236)"><rect width="10" height="10" fill="#6ab7ff" rx="2"/><text x="16" y="10">Slope</text></g></g></svg>