<svg xmlns="http://www.w3.org/2000/svg" width="720" height="260" viewBox="0 0 720 260" role="img" aria-label="30m PRE and Lift"><rect width="720" height="260" fill="#07110d"/><text x="36" y="30" fill="#e5f4ea" font-family="Arial, sans-serif" font-size="18">30m PRE and Lift</text><line x1="38" y1="210" x2="682" y2="210" stroke="#245242" stroke-width="1"/><line x1="38" y1="48" x2="38" y2="210" stroke="#245242" stroke-width="1"/><polyline points="87.5,125.1 137.1,38 186.6,154.2 236.2,125.9 285.7,102.2 335.2,170.4 384.8,137.3 434.3,222 483.8,63.6 533.4,170.4 582.9,125.9 632.5,192.8 682,138.9" fill="none" stroke="#f1cf5f" stroke-width="2.4" stroke-linecap="round" stroke-linejoin="round"/><polyline points="87.5,92.6 137.1,91 186.6,38 236.2,160.1 285.7,147.6 335.2,189.2 384.8,212.7 434.3,190.3 483.8,176.3 533.4,222 582.9,197.9 632.5,85.9 682,121.3" fill="none" stroke="#6ab7ff" stroke-width="2.4" stroke-linecap="round" stroke-linejoin="round"/><polyline points="87.5,222 137.1,222 186.6,222 236.2,222 285.7,222 335.2,222 384.8,222 434.3,222 483.8,222 533.4,222 582.9,222 632.5,222 682,222" fill="none" stroke="#ef8840" stroke-width="2.4" stroke-linecap="round" stroke-linejoin="round"/><g fill="#a9c8b7" font-family="Arial, sans-serif" font-size="12"><g transform="translate(40 236)"><rect width="10" height="10" fill="#f1cf5f" rx="2"/><text x="16" y="10">PRE</text></g><g transform="translate(200 236)"><rect width="10" height="10" fill="#6ab7ff" rx="2"/><text x="16" y="10">Lift</text></g><g transform="translate(360 236)"><rect width="10" height="10" fill="#ef8840" rx="2"/><text x="16" y="10">Angle</text></g></g></svg>