<svg xmlns="http://www.w3.org/2000/svg" width="720" height="260" viewBox="0 0 720 260" role="img" aria-label="10m PRE and Lift"><rect width="720" height="260" fill="#07110d"/><text x="36" y="30" fill="#e5f4ea" font-family="Arial, sans-serif" font-size="18">10m PRE and Lift</text><line x1="38" y1="210" x2="682" y2="210" stroke="#245242" stroke-width="1"/><line x1="38" y1="48" x2="38" y2="210" stroke="#245242" stroke-width="1"/><polyline points="54.5,222 71,38 87.5,128.4 104.1,70.5 120.6,83.6 137.1,101.6 153.6,67.9 170.1,50.9 186.6,55.6 203.1,118.8 219.6,128 236.2,95.4 252.7,73.1 269.2,115.9 285.7,76.2 302.2,100.7 318.7,89.8 335.2,103.8 351.7,109.8 368.3,101.1 384.8,95.1 401.3,88.3 417.8,107.9 434.3,131 450.8,101.1 467.3,119 483.8,54.7 500.4,73.8 516.9,109.8 533.4,95.1 549.9,107.2 566.4,113.6 582.9,81 599.4,93.2 615.9,108.3 632.5,115.5 649,106.8 665.5,108 682,95" fill="none" stroke="#f1cf5f" stroke-width="2.4" stroke-linecap="round" stroke-linejoin="round"/><polyline points="54.5,76.6 71,98.3 87.5,166.4 104.1,171.2 120.6,171.4 137.1,174.1 153.6,170.9 170.1,162.1 186.6,110.8 203.1,148.1 219.6,186.7 236.2,200 252.7,196 269.2,191.2 285.7,194.5 302.2,177.6 318.7,200.6 335.2,209.5 351.7,194.2 368.3,217.2 384.8,215.4 401.3,217.3 417.8,215.4 434.3,207.7 450.8,210.7 467.3,203.8 483.8,193.8 500.4,200.5 516.9,211.6 533.4,222 549.9,219.5 566.4,217.5 582.9,213.7 599.4,210 615.9,207.3 632.5,213.6 649,209.2 665.5,78.3 682,38" fill="none" stroke="#6ab7ff" stroke-width="2.4" stroke-linecap="round" stroke-linejoin="round"/><polyline points="54.5,222 71,222 87.5,222 104.1,222 120.6,222 137.1,222 153.6,222 170.1,222 186.6,222 203.1,222 219.6,222 236.2,222 252.7,222 269.2,222 285.7,222 302.2,222 318.7,222 335.2,222 351.7,222 368.3,222 384.8,222 401.3,222 417.8,222 434.3,222 450.8,222 467.3,222 483.8,222 500.4,222 516.9,222 533.4,222 549.9,222 566.4,222 582.9,222 599.4,222 615.9,222 632.5,222 649,222 665.5,222 682,222" fill="none" stroke="#ef8840" stroke-width="2.4" stroke-linecap="round" stroke-linejoin="round"/><g fill="#a9c8b7" font-family="Arial, sans-serif" font-size="12"><g transform="translate(40 236)"><rect width="10" height="10" fill="#f1cf5f" rx="2"/><text x="16" y="10">PRE</text></g><g transform="translate(200 236)"><rect width="10" height="10" fill="#6ab7ff" rx="2"/><text x="16" y="10">Lift</text></g><g transform="translate(360 236)"><rect width="10" height="10" fill="#ef8840" rx="2"/><text x="16" y="10">Angle</text></g></g></svg>