<svg xmlns="http://www.w3.org/2000/svg" width="720" height="260" viewBox="0 0 720 260" role="img" aria-label="30m price and volume"><rect width="720" height="260" fill="#07110d"/><text x="36" y="30" fill="#e5f4ea" font-family="Arial, sans-serif" font-size="18">30m price and volume</text><line x1="38" y1="210" x2="682" y2="210" stroke="#245242" stroke-width="1"/><line x1="38" y1="48" x2="38" y2="210" stroke="#245242" stroke-width="1"/><polyline points="38,222 87.5,202.6 137.1,90.4 186.6,101.8 236.2,82.4 285.7,38 335.2,68.2 384.8,59.6 434.3,144 483.8,59.1 533.4,87.6 582.9,69.3 632.5,121.2 682,114.9" fill="none" stroke="#6fd3a1" stroke-width="2.4" stroke-linecap="round" stroke-linejoin="round"/><polyline points="38,38 87.5,184.5 137.1,184 186.6,168.7 236.2,204.1 285.7,200.4 335.2,212.5 384.8,219.3 434.3,212.8 483.8,208.8 533.4,222 582.9,215 632.5,182.6 682,192.8" fill="none" stroke="#d9b64f" stroke-width="2.4" stroke-linecap="round" stroke-linejoin="round"/><g fill="#a9c8b7" font-family="Arial, sans-serif" font-size="12"><g transform="translate(40 236)"><rect width="10" height="10" fill="#6fd3a1" rx="2"/><text x="16" y="10">Close</text></g><g transform="translate(200 236)"><rect width="10" height="10" fill="#d9b64f" rx="2"/><text x="16" y="10">Volume</text></g></g></svg>