<svg xmlns="http://www.w3.org/2000/svg" width="720" height="260" viewBox="0 0 720 260" role="img" aria-label="10m price and volume"><rect width="720" height="260" fill="#07110d"/><text x="36" y="30" fill="#e5f4ea" font-family="Arial, sans-serif" font-size="18">10m price and volume</text><line x1="38" y1="210" x2="682" y2="210" stroke="#245242" stroke-width="1"/><line x1="38" y1="48" x2="38" y2="210" stroke="#245242" stroke-width="1"/><polyline points="38,101.4 54.5,222 71,164.8 87.5,193.6 104.1,167.8 120.6,152.3 137.1,154.5 153.6,125 170.1,79.7 186.6,38 203.1,58.3 219.6,87 236.2,83.7 252.7,57.2 269.2,74.5 285.7,52.4 302.2,54.2 318.7,45.7 335.2,52 351.7,63.1 368.3,65.3 384.8,60.9 401.3,51.3 417.8,59.8 434.3,92.2 450.8,94.8 467.3,114.3 483.8,71.6 500.4,48 516.9,59.4 533.4,56.1 549.9,63.4 566.4,77.8 582.9,61.2 599.4,56.8 615.9,66 632.5,82.2 649,90 665.5,99.6 682,95.5" fill="none" stroke="#6fd3a1" stroke-width="2.4" stroke-linecap="round" stroke-linejoin="round"/><polyline points="38,38 54.5,165.6 71,174 87.5,200.4 104.1,202.3 120.6,202.4 137.1,203.4 153.6,202.2 170.1,198.7 186.6,178.8 203.1,193.3 219.6,208.3 236.2,213.5 252.7,211.9 269.2,210 285.7,211.3 302.2,204.8 318.7,213.7 335.2,217.2 351.7,211.2 368.3,220.1 384.8,219.4 401.3,220.2 417.8,219.5 434.3,216.4 450.8,217.6 467.3,214.9 483.8,211.1 500.4,213.7 516.9,218 533.4,222 549.9,221 566.4,220.2 582.9,218.8 599.4,217.3 615.9,216.3 632.5,218.7 649,217 665.5,166.2 682,150.6" fill="none" stroke="#d9b64f" stroke-width="2.4" stroke-linecap="round" stroke-linejoin="round"/><g fill="#a9c8b7" font-family="Arial, sans-serif" font-size="12"><g transform="translate(40 236)"><rect width="10" height="10" fill="#6fd3a1" rx="2"/><text x="16" y="10">Close</text></g><g transform="translate(200 236)"><rect width="10" height="10" fill="#d9b64f" rx="2"/><text x="16" y="10">Volume</text></g></g></svg>