<svg xmlns="http://www.w3.org/2000/svg" width="720" height="260" viewBox="0 0 720 260" role="img" aria-label="10m RSI"><rect width="720" height="260" fill="#07110d"/><text x="36" y="30" fill="#e5f4ea" font-family="Arial, sans-serif" font-size="18">10m RSI</text><line x1="38" y1="210" x2="682" y2="210" stroke="#245242" stroke-width="1"/><line x1="38" y1="48" x2="38" y2="210" stroke="#245242" stroke-width="1"/><polyline points="269.2,84.8 285.7,49.2 302.2,52.9 318.7,38 335.2,52.4 351.7,78.5 368.3,83.9 384.8,73.8 401.3,51.2 417.8,76 434.3,164.6 450.8,171.3 467.3,222 483.8,100.8 500.4,43.6 516.9,76.8 533.4,68.1 549.9,91.3 566.4,136 582.9,86.1 599.4,72.9 615.9,105.3 632.5,160 649,185.4 665.5,216.6 682,199.8" fill="none" stroke="#a5d83f" stroke-width="2.4" stroke-linecap="round" stroke-linejoin="round"/><g fill="#a9c8b7" font-family="Arial, sans-serif" font-size="12"><g transform="translate(40 236)"><rect width="10" height="10" fill="#a5d83f" rx="2"/><text x="16" y="10">RSI</text></g></g></svg>