<svg xmlns="http://www.w3.org/2000/svg" width="720" height="260" viewBox="0 0 720 260" role="img" aria-label="10m StochRSI"><rect width="720" height="260" fill="#07110d"/><text x="36" y="30" fill="#e5f4ea" font-family="Arial, sans-serif" font-size="18">10m StochRSI</text><line x1="38" y1="210" x2="682" y2="210" stroke="#245242" stroke-width="1"/><line x1="38" y1="48" x2="38" y2="210" stroke="#245242" stroke-width="1"/><polyline points="483.8,98.9 500.4,38 516.9,73.3 533.4,64.1 549.9,84.5 566.4,133.5 582.9,78.7 599.4,64.2 615.9,99.8 632.5,159.9 649,187.8 665.5,222 682,203.6" fill="none" stroke="#ef8840" stroke-width="2.4" stroke-linecap="round" stroke-linejoin="round"/><polyline points="516.9,52.6 533.4,38 549.9,57.5 566.4,82.8 582.9,89 599.4,80.4 615.9,66.3 632.5,100.4 649,152.3 665.5,203.6 682,222" fill="none" stroke="#6fd3a1" stroke-width="2.4" stroke-linecap="round" stroke-linejoin="round"/><polyline points="549.9,38 566.4,50.9 582.9,72.8 599.4,82.5 615.9,75.5 632.5,80.4 649,111.1 665.5,169.9 682,222" fill="none" stroke="#ef4e5f" stroke-width="2.4" stroke-linecap="round" stroke-linejoin="round"/><g fill="#a9c8b7" font-family="Arial, sans-serif" font-size="12"><g transform="translate(40 236)"><rect width="10" height="10" fill="#ef8840" rx="2"/><text x="16" y="10">Value</text></g><g transform="translate(200 236)"><rect width="10" height="10" fill="#6fd3a1" rx="2"/><text x="16" y="10">%K</text></g><g transform="translate(360 236)"><rect width="10" height="10" fill="#ef4e5f" rx="2"/><text x="16" y="10">%D</text></g></g></svg>